PathFileType	4	(X/Y/Z)	/Users/itak/Documents/Research/Walk-IL/dataset/trc/00164_00008.trc
DataRate	CameraRate	NumFrames	NumMarkers	Units	OrigDataRate	OrigDataStartFrame	OrigNumFrames
100.000000	100.000000	4	53	mm	100.000000	380	608
Frame#	Time	RPSI			LPSI			L3			STRN			T10			C7			CLAV			RBAK			LBAK			LSHO			LUPA			LAEL			LAOL			LWTS			LWPS			LFRA			LIFD			LHPS			LHTS			RSHO			RUPA			RAEL			RAOL			RWTS			RWPS			RFRA			RIFD			RHTS			RHPS			RBHD			LFHD			RFHD			LBHD			LHIP			RHIP			RASI			LASI			LKNE			LTHI			LANK			LTIP			LTOE			LMT1			LMT5			LHEE			RKNE			RTHI			RANK			RTIP			RTOE			RMT1			RMT5			RHEE			
		X1	Y1	Z1	X2	Y2	Z2	X3	Y3	Z3	X4	Y4	Z4	X5	Y5	Z5	X6	Y6	Z6	X7	Y7	Z7	X8	Y8	Z8	X9	Y9	Z9	X10	Y10	Z10	X11	Y11	Z11	X12	Y12	Z12	X13	Y13	Z13	X14	Y14	Z14	X15	Y15	Z15	X16	Y16	Z16	X17	Y17	Z17	X18	Y18	Z18	X19	Y19	Z19	X20	Y20	Z20	X21	Y21	Z21	X22	Y22	Z22	X23	Y23	Z23	X24	Y24	Z24	X25	Y25	Z25	X26	Y26	Z26	X27	Y27	Z27	X28	Y28	Z28	X29	Y29	Z29	X30	Y30	Z30	X31	Y31	Z31	X32	Y32	Z32	X33	Y33	Z33	X34	Y34	Z34	X35	Y35	Z35	X36	Y36	Z36	X37	Y37	Z37	X38	Y38	Z38	X39	Y39	Z39	X40	Y40	Z40	X41	Y41	Z41	X42	Y42	Z42	X43	Y43	Z43	X44	Y44	Z44	X45	Y45	Z45	X46	Y46	Z46	X47	Y47	Z47	X48	Y48	Z48	X49	Y49	Z49	X50	Y50	Z50	X51	Y51	Z51	X52	Y52	Z52	X53	Y53	Z53	

381	3.8	-114.0662078857422	1046.90625	2.243014574050903	-95.34962463378906	1052.193237304688	-119.6180419921875	-106.1918640136719	1090.169799804688	-54.00968170166016	155.4908142089844	1295.61669921875	-31.68898582458496	-137.72607421875	1244.827392578125	-66.93708038330078	-70.02129364013672	1513.762817382812	-80.82997894287109	129.2726593017578	1408.656494140625	-50.44516754150391	-147.9708099365234	1343.035766601562	27.09733963012695	-65.70191192626953	1483.123291015625	-180.6547088623047	19.66710472106934	1466.392456054688	-249.7120666503906	-3.720138549804688	1331.022827148438	-320.5572204589844	12.07366752624512	1113.888427734375	-325.7850952148438	-37.88864135742188	1101.060180664062	-254.9637908935547	108.0426940917969	877.0056762695312	-282.5652770996094	29.87801170349121	861.550048828125	-331.0276794433594	22.86069297790527	1003.77001953125	-336.846435546875	103.9194717407227	690.39697265625	-253.9208831787109	44.916015625	790.12548828125	-323.6375122070312	113.8621368408203	796.3384399414062	-298.6363830566406	-25.21525192260742	1500.000610351562	107.0766143798828	-51.44313812255859	1435.872802734375	177.0740661621094	-75.1634521484375	1150.282104492188	240.2021331787109	-73.73418426513672	1139.2919921875	142.7791900634766	55.98999786376953	918.3660278320312	231.4727630615234	-17.18123817443848	906.58837890625	279.7317504882812	-52.35161209106445	1078.274291992188	261.7905578613281	64.97403717041016	728.0364990234375	216.601318359375	78.33345031738281	823.7527465820312	242.1212768554688	6.987489223480225	822.0912475585938	279.0125427246094	-24.00409317016602	1681.137329101562	-14.33061408996582	139.3441162109375	1718.835205078125	-153.4342651367188	139.3154296875	1735.826904296875	-23.71706581115723	-35.20867156982422	1669.676513671875	-151.4654388427734	27.12638282775879	996.4216918945312	-222.1100006103516	10.18783378601074	994.6911010742188	150.5618438720703	100.2374954223633	1031.6689453125	111.9572448730469	139.1870727539062	1030.997680664062	-142.3326873779297	160.7362823486328	503.6477355957031	-141.9644470214844	131.8644714355469	643.175537109375	-183.8505096435547	94.39686584472656	36.37444305419922	-116.594367980957	137.0650024414062	269.6334533691406	-142.1363372802734	311.8153076171875	44.61312103271484	-95.19255065917969	266.1466979980469	44.13058090209961	-44.77639007568359	201.8581085205078	34.77585220336914	-154.8933715820312	46.04151153564453	39.83157348632812	-47.22167205810547	59.92902755737305	491.1073303222656	157.6009521484375	72.36453247070312	767.6784057617188	167.4590759277344	-353.0685119628906	206.1968536376953	83.41917419433594	-2.85462498664856	384.8415832519531	138.4003143310547	-197.6718902587891	62.48589324951172	95.99021148681641	-218.3861694335938	95.36391448974609	38.35831451416016	-305.3448486328125	110.8933715820312	126.8187255859375	-357.3214111328125	250.6653137207031	11.99321365356445	
382	3.81	-105.3177032470703	1048.251098632812	0.9598804116249084	-86.58027648925781	1053.370361328125	-121.0519256591797	-97.42237091064453	1091.538940429688	-55.54730606079102	164.5438079833984	1296.719360351562	-32.01536560058594	-128.5168304443359	1246.372192382812	-68.9781494140625	-60.43758010864258	1515.149536132812	-82.5831298828125	138.6510772705078	1409.863647460938	-50.84744644165039	-139.1155242919922	1344.496826171875	24.92392158508301	-55.33982467651367	1484.598754882812	-182.3428344726562	30.50647163391113	1467.793823242188	-250.7190704345703	7.91285228729248	1332.7236328125	-322.2056579589844	24.14717292785645	1115.588745117188	-328.4208374023438	-26.89294052124023	1102.374633789062	-258.5491638183594	120.6601181030273	879.081298828125	-284.599609375	43.35810470581055	863.2696533203125	-334.2820739746094	35.79301071166992	1005.558349609375	-339.8892211914062	117.8861389160156	692.444580078125	-257.0839538574219	58.96480941772461	791.9827270507812	-327.1026306152344	127.3769149780273	798.6639404296875	-301.0995483398438	-16.77079200744629	1501.332885742188	105.6435623168945	-43.44211578369141	1437.205932617188	175.4563751220703	-66.85102844238281	1151.656494140625	239.0090484619141	-65.16318511962891	1140.561889648438	141.6103668212891	65.65778350830078	920.4686889648438	230.4766082763672	-7.3814377784729	908.3086547851562	278.8341979980469	-43.70227432250977	1079.71923828125	260.7332458496094	75.83686065673828	730.2227783203125	215.9901428222656	88.65647888183594	826.058837890625	241.2842254638672	17.32808876037598	824.0051879882812	278.2705993652344	-14.19425678253174	1682.444458007812	-15.57202911376953	149.5714569091797	1719.798217773438	-153.9684143066406	149.1664123535156	1736.886840820312	-24.36075782775879	-24.9290943145752	1670.869995117188	-152.7381744384766	35.70149612426758	997.3267211914062	-223.2067108154297	18.81689262390137	996.314208984375	149.4347381591797	108.8278961181641	1033.285400390625	110.8526763916016	147.9599761962891	1031.989379882812	-143.4833984375	163.6715087890625	503.3037719726562	-143.119873046875	136.594482421875	643.2863159179688	-184.8363647460938	94.34175109863281	36.26061630249023	-116.775032043457	138.1737823486328	269.5349731445312	-142.8660430908203	311.6959838867188	44.7733268737793	-95.50382995605469	266.0950012207031	44.36918640136719	-45.12031173706055	201.7611846923828	34.43225860595703	-155.2488098144531	45.99488830566406	40.02176666259766	-47.40940856933594	79.97322082519531	493.5160827636719	158.0264739990234	84.92665100097656	770.357666015625	167.2750091552734	-330.2129516601562	205.5578918457031	84.22397613525391	18.70858955383301	386.8280029296875	138.7702941894531	-171.5779266357422	64.05422973632812	97.48720550537109	-193.1168823242188	97.03910827636719	39.9117317199707	-280.3037109375	111.7109680175781	128.2350769042969	-335.61474609375	249.4919128417969	12.51378917694092	
383	3.82	-96.66121673583984	1049.552124023438	-0.1266654282808304	-77.97489166259766	1054.502807617188	-122.3039627075195	-88.74105072021484	1092.83935546875	-56.95283126831055	173.4924163818359	1297.857299804688	-32.36996078491211	-119.4152069091797	1247.843017578125	-70.85045623779297	-51.02394485473633	1516.472412109375	-84.23981475830078	147.8785400390625	1411.101806640625	-51.25027084350586	-130.3138732910156	1345.910522460938	22.9013557434082	-45.20900344848633	1486.020629882812	-183.9335021972656	41.08994674682617	1469.213500976562	-251.6508483886719	19.34779357910156	1334.469848632812	-323.7974853515625	36.10286712646484	1117.359619140625	-331.0138549804688	-15.94172096252441	1103.713012695312	-262.0821533203125	133.3970947265625	881.310302734375	-286.6958312988281	56.92599487304688	865.0665893554688	-337.5050659179688	48.66680526733398	1007.432556152344	-342.8992919921875	132.2298583984375	694.6610717773438	-260.3057250976562	73.21818542480469	793.9889526367188	-330.5680847167969	141.081298828125	801.1676635742188	-303.6282958984375	-8.436307907104492	1502.670288085938	104.2535934448242	-35.53458404541016	1438.580688476562	173.9020538330078	-58.739990234375	1153.030029296875	237.7404327392578	-56.57562637329102	1141.864868164062	140.3779449462891	75.37081909179688	922.695068359375	229.6408386230469	2.335984945297241	910.0277099609375	277.8364562988281	-35.23529052734375	1081.157348632812	259.6274719238281	87.04078674316406	732.5687866210938	215.4395904541016	99.10482025146484	828.5115356445312	240.626708984375	27.6662425994873	825.948974609375	277.4469604492188	-4.476885795593262	1683.743408203125	-16.71339988708496	159.7108764648438	1720.67138671875	-154.3006896972656	158.9559173583984	1737.832153320312	-24.84849739074707	-14.68709945678711	1672.130126953125	-153.9290313720703	44.07081604003906	998.1259155273438	-224.2596740722656	27.56876182556152	998.0025634765625	148.3670806884766	117.4402008056641	1034.912719726562	109.6229476928711	156.5655364990234	1032.948120117188	-144.7978973388672	166.2456665039062	502.9412231445312	-144.3395385742188	140.9046173095703	643.3179321289062	-185.9026794433594	94.27090454101562	36.14800643920898	-116.9520263671875	139.0907897949219	269.4587707519531	-143.6057281494141	311.5992736816406	44.83869934082031	-95.80603790283203	266.0376586914062	44.61438369750977	-45.46957778930664	201.6464691162109	34.08861541748047	-155.6217041015625	45.95037460327148	40.21102905273438	-47.58154296875	99.76710510253906	496.2030029296875	158.2845611572266	97.40105438232422	773.10986328125	167.0760040283203	-306.6317138671875	203.7597961425781	85.003173828125	40.26937103271484	388.8856506347656	139.0215301513672	-144.4225921630859	65.33380126953125	99.00520324707031	-166.8491668701172	97.99607849121094	41.48173522949219	-254.2134246826172	111.6872711181641	129.7416839599609	-313.304931640625	247.0479736328125	12.97977066040039	
384	3.83	-88.09379577636719	1050.78662109375	-1.013205409049988	-69.49617004394531	1055.564331054688	-123.3784637451172	-80.12303161621094	1094.047119140625	-58.2255744934082	182.3542022705078	1299.002075195312	-32.77266311645508	-110.4122772216797	1249.224731445312	-72.56063842773438	-41.76164245605469	1517.7216796875	-85.7926025390625	156.9728088378906	1412.339111328125	-51.66801071166992	-121.5565490722656	1347.255859375	21.0325756072998	-35.3066520690918	1487.375122070312	-185.4208679199219	51.41431427001953	1470.632934570312	-252.5174713134766	30.56121635437012	1336.234619140625	-325.3265380859375	47.9422607421875	1119.176147460938	-333.5567321777344	-5.016687393188477	1105.049682617188	-265.5440368652344	146.2480926513672	883.6663208007812	-288.8414306640625	70.56588745117188	866.922607421875	-340.6846618652344	61.46931457519531	1009.363159179688	-345.8501892089844	146.8827209472656	697.0213012695312	-263.5458068847656	87.63048553466797	796.1492309570312	-334.0051879882812	154.9521026611328	803.8138427734375	-306.1965637207031	-0.1748262494802475	1503.979736328125	102.9117279052734	-27.67551422119141	1439.959716796875	172.418212890625	-50.82318496704102	1154.373168945312	236.4264221191406	-47.99108123779297	1143.169555664062	139.1120147705078	85.11684417724609	925.0145874023438	228.9654541015625	11.9551248550415	911.7009887695312	276.7294921875	-26.95207214355469	1082.55224609375	258.4889526367188	98.57994842529297	735.0558471679688	214.9171142578125	109.6584167480469	831.0851440429688	240.1365203857422	37.99309539794922	827.880126953125	276.5169677734375	5.133099555969238	1685.017333984375	-17.76406478881836	169.7700958251953	1721.456909179688	-154.4452667236328	168.6789703369141	1738.655151367188	-25.1811637878418	-4.494933128356934	1673.446533203125	-155.0425262451172	52.26097869873047	998.8143310546875	-225.2685394287109	36.46397399902344	999.7042236328125	147.3624114990234	126.0969314575195	1036.49609375	108.2760925292969	165.0292205810547	1033.838256835938	-146.2759246826172	168.4673919677734	502.5650329589844	-145.6096649169922	144.8125152587891	643.2762451171875	-187.0306854248047	94.18816375732422	36.0424919128418	-117.1135940551758	139.8007202148438	269.4002685546875	-144.3497619628906	311.5260314941406	44.81366348266602	-96.08571624755859	265.9787292480469	44.8517951965332	-45.80937957763672	201.5188903808594	33.75625228881836	-156.0019836425781	45.8955192565918	40.39728164672852	-47.73273086547852	119.3027877807617	499.122802734375	158.3719024658203	109.8098831176758	775.9039916992188	166.8608093261719	-282.3564147949219	200.8593139648438	85.75556945800781	61.79943084716797	390.9931030273438	139.1448211669922	-116.2975387573242	66.34162902832031	100.602165222168	-139.6422271728516	98.29310607910156	43.1087760925293	-227.1544342041016	110.9000701904297	131.3542938232422	-290.3863525390625	243.351318359375	13.38312816619873	
